<mxfile host="app.diagrams.net" modified="2024-05-26T20:46:30.353Z" agent="Mozilla/5.0 (X11; Linux x86_64; rv:125.0) Gecko/20100101 Firefox/125.0" etag="WqgS5VwgLBDqNFUtlOLG" version="24.4.8" type="device">
  <diagram name="Page-1" id="tuCjvgQqddyuSRP-_SaL">
    <mxGraphModel dx="2537" dy="888" grid="1" gridSize="10" guides="1" tooltips="1" connect="1" arrows="1" fold="1" page="1" pageScale="1" pageWidth="850" pageHeight="1100" math="0" shadow="0">
      <root>
        <mxCell id="0" />
        <mxCell id="1" parent="0" />
        <mxCell id="dgKwdxsKXp1fs5gJgRd6-3" value="" style="rounded=0;whiteSpace=wrap;html=1;" vertex="1" parent="1">
          <mxGeometry x="680" y="90" width="230" height="440" as="geometry" />
        </mxCell>
        <mxCell id="dgKwdxsKXp1fs5gJgRd6-1" value="" style="shape=cylinder3;whiteSpace=wrap;html=1;boundedLbl=1;backgroundOutline=1;size=15;fillColor=#dae8fc;strokeColor=#6c8ebf;" vertex="1" parent="1">
          <mxGeometry x="710" y="150" width="60" height="80" as="geometry" />
        </mxCell>
        <mxCell id="dgKwdxsKXp1fs5gJgRd6-13" style="edgeStyle=orthogonalEdgeStyle;rounded=0;orthogonalLoop=1;jettySize=auto;html=1;entryX=0.75;entryY=1;entryDx=0;entryDy=0;exitX=-0.009;exitY=0.691;exitDx=0;exitDy=0;exitPerimeter=0;" edge="1" parent="1" source="dgKwdxsKXp1fs5gJgRd6-3" target="dgKwdxsKXp1fs5gJgRd6-6">
          <mxGeometry relative="1" as="geometry">
            <Array as="points">
              <mxPoint x="570" y="394" />
            </Array>
          </mxGeometry>
        </mxCell>
        <mxCell id="dgKwdxsKXp1fs5gJgRd6-2" value="" style="shape=cylinder3;whiteSpace=wrap;html=1;boundedLbl=1;backgroundOutline=1;size=15;fillColor=#d5e8d4;strokeColor=#82b366;" vertex="1" parent="1">
          <mxGeometry x="710" y="300" width="60" height="80" as="geometry" />
        </mxCell>
        <mxCell id="dgKwdxsKXp1fs5gJgRd6-4" value="" style="shape=cylinder3;whiteSpace=wrap;html=1;boundedLbl=1;backgroundOutline=1;size=15;fillColor=#d5e8d4;strokeColor=#82b366;" vertex="1" parent="1">
          <mxGeometry x="710" y="420" width="60" height="80" as="geometry" />
        </mxCell>
        <mxCell id="dgKwdxsKXp1fs5gJgRd6-5" value="&lt;div&gt;PostgresSQL-Cluster&lt;/div&gt;&lt;div&gt;(horizontal scaling)&lt;br&gt; &lt;/div&gt;" style="text;html=1;align=center;verticalAlign=middle;whiteSpace=wrap;rounded=0;" vertex="1" parent="1">
          <mxGeometry x="735" y="100" width="120" height="60" as="geometry" />
        </mxCell>
        <mxCell id="dgKwdxsKXp1fs5gJgRd6-7" style="edgeStyle=orthogonalEdgeStyle;rounded=0;orthogonalLoop=1;jettySize=auto;html=1;entryX=0;entryY=0;entryDx=0;entryDy=52.5;entryPerimeter=0;exitX=0.75;exitY=0;exitDx=0;exitDy=0;" edge="1" parent="1" source="dgKwdxsKXp1fs5gJgRd6-6" target="dgKwdxsKXp1fs5gJgRd6-1">
          <mxGeometry relative="1" as="geometry" />
        </mxCell>
        <mxCell id="dgKwdxsKXp1fs5gJgRd6-6" value="&lt;div&gt;DB&lt;/div&gt;&lt;div&gt;Load-Balancer&lt;/div&gt;&lt;div&gt;+ Cache&lt;br&gt;&lt;/div&gt;" style="shape=step;perimeter=stepPerimeter;whiteSpace=wrap;html=1;fixedSize=1;" vertex="1" parent="1">
          <mxGeometry x="480" y="270" width="120" height="80" as="geometry" />
        </mxCell>
        <mxCell id="dgKwdxsKXp1fs5gJgRd6-8" value="Master" style="text;html=1;align=center;verticalAlign=middle;whiteSpace=wrap;rounded=0;" vertex="1" parent="1">
          <mxGeometry x="710" y="240" width="60" height="30" as="geometry" />
        </mxCell>
        <mxCell id="dgKwdxsKXp1fs5gJgRd6-9" value="Slaves" style="text;html=1;align=center;verticalAlign=middle;whiteSpace=wrap;rounded=0;" vertex="1" parent="1">
          <mxGeometry x="760" y="390" width="60" height="30" as="geometry" />
        </mxCell>
        <mxCell id="dgKwdxsKXp1fs5gJgRd6-10" style="edgeStyle=orthogonalEdgeStyle;rounded=0;orthogonalLoop=1;jettySize=auto;html=1;entryX=1;entryY=0.5;entryDx=0;entryDy=0;entryPerimeter=0;exitX=1;exitY=0;exitDx=0;exitDy=52.5;exitPerimeter=0;" edge="1" parent="1" source="dgKwdxsKXp1fs5gJgRd6-1" target="dgKwdxsKXp1fs5gJgRd6-2">
          <mxGeometry relative="1" as="geometry" />
        </mxCell>
        <mxCell id="dgKwdxsKXp1fs5gJgRd6-11" style="edgeStyle=orthogonalEdgeStyle;rounded=0;orthogonalLoop=1;jettySize=auto;html=1;entryX=1;entryY=0.5;entryDx=0;entryDy=0;entryPerimeter=0;exitX=1;exitY=0.5;exitDx=0;exitDy=0;exitPerimeter=0;" edge="1" parent="1" source="dgKwdxsKXp1fs5gJgRd6-1" target="dgKwdxsKXp1fs5gJgRd6-4">
          <mxGeometry relative="1" as="geometry">
            <Array as="points">
              <mxPoint x="840" y="190" />
              <mxPoint x="840" y="460" />
            </Array>
          </mxGeometry>
        </mxCell>
        <mxCell id="dgKwdxsKXp1fs5gJgRd6-12" value="Writes" style="text;html=1;align=center;verticalAlign=middle;whiteSpace=wrap;rounded=0;" vertex="1" parent="1">
          <mxGeometry x="600" y="220" width="60" height="30" as="geometry" />
        </mxCell>
        <mxCell id="dgKwdxsKXp1fs5gJgRd6-14" value="Reads" style="text;html=1;align=center;verticalAlign=middle;whiteSpace=wrap;rounded=0;" vertex="1" parent="1">
          <mxGeometry x="600" y="350" width="60" height="30" as="geometry" />
        </mxCell>
        <mxCell id="dgKwdxsKXp1fs5gJgRd6-15" value="Updates" style="text;html=1;align=center;verticalAlign=middle;whiteSpace=wrap;rounded=0;" vertex="1" parent="1">
          <mxGeometry x="840" y="260" width="60" height="30" as="geometry" />
        </mxCell>
        <mxCell id="dgKwdxsKXp1fs5gJgRd6-16" value="" style="rounded=0;whiteSpace=wrap;html=1;" vertex="1" parent="1">
          <mxGeometry x="280" y="90" width="125" height="440" as="geometry" />
        </mxCell>
        <mxCell id="dgKwdxsKXp1fs5gJgRd6-18" value="" style="shape=cylinder3;whiteSpace=wrap;html=1;boundedLbl=1;backgroundOutline=1;size=15;" vertex="1" parent="1">
          <mxGeometry x="312.5" y="180" width="60" height="80" as="geometry" />
        </mxCell>
        <mxCell id="dgKwdxsKXp1fs5gJgRd6-20" value="&lt;div&gt;Next.js API-Cluster&lt;/div&gt;&lt;div&gt;(stateless,&lt;/div&gt;&lt;div&gt;horizontal scaling)&lt;br&gt; &lt;/div&gt;" style="text;html=1;align=center;verticalAlign=middle;whiteSpace=wrap;rounded=0;" vertex="1" parent="1">
          <mxGeometry x="282.5" y="100" width="120" height="60" as="geometry" />
        </mxCell>
        <mxCell id="dgKwdxsKXp1fs5gJgRd6-26" value="" style="shape=cylinder3;whiteSpace=wrap;html=1;boundedLbl=1;backgroundOutline=1;size=15;" vertex="1" parent="1">
          <mxGeometry x="312.5" y="290" width="60" height="80" as="geometry" />
        </mxCell>
        <mxCell id="dgKwdxsKXp1fs5gJgRd6-27" value="" style="shape=cylinder3;whiteSpace=wrap;html=1;boundedLbl=1;backgroundOutline=1;size=15;" vertex="1" parent="1">
          <mxGeometry x="312.5" y="400" width="60" height="80" as="geometry" />
        </mxCell>
        <mxCell id="dgKwdxsKXp1fs5gJgRd6-28" value="" style="endArrow=classic;startArrow=classic;html=1;rounded=0;entryX=0;entryY=0.5;entryDx=0;entryDy=0;exitX=1;exitY=0.5;exitDx=0;exitDy=0;" edge="1" parent="1" source="dgKwdxsKXp1fs5gJgRd6-16" target="dgKwdxsKXp1fs5gJgRd6-6">
          <mxGeometry width="50" height="50" relative="1" as="geometry">
            <mxPoint x="400" y="350" as="sourcePoint" />
            <mxPoint x="470" y="340" as="targetPoint" />
            <Array as="points">
              <mxPoint x="500" y="310" />
            </Array>
          </mxGeometry>
        </mxCell>
        <mxCell id="dgKwdxsKXp1fs5gJgRd6-29" value="" style="rounded=0;whiteSpace=wrap;html=1;" vertex="1" parent="1">
          <mxGeometry x="-90" y="90" width="125" height="440" as="geometry" />
        </mxCell>
        <mxCell id="dgKwdxsKXp1fs5gJgRd6-30" value="" style="shape=cylinder3;whiteSpace=wrap;html=1;boundedLbl=1;backgroundOutline=1;size=15;" vertex="1" parent="1">
          <mxGeometry x="-57.5" y="180" width="60" height="80" as="geometry" />
        </mxCell>
        <mxCell id="dgKwdxsKXp1fs5gJgRd6-31" value="&lt;div&gt;Next.js Frontend-Cluster&lt;/div&gt;&lt;div&gt;(stateful,&lt;/div&gt;&lt;div&gt;horizontal scaling)&lt;br&gt; &lt;/div&gt;" style="text;html=1;align=center;verticalAlign=middle;whiteSpace=wrap;rounded=0;" vertex="1" parent="1">
          <mxGeometry x="-87.5" y="100" width="120" height="60" as="geometry" />
        </mxCell>
        <mxCell id="dgKwdxsKXp1fs5gJgRd6-32" value="" style="shape=cylinder3;whiteSpace=wrap;html=1;boundedLbl=1;backgroundOutline=1;size=15;" vertex="1" parent="1">
          <mxGeometry x="-57.5" y="290" width="60" height="80" as="geometry" />
        </mxCell>
        <mxCell id="dgKwdxsKXp1fs5gJgRd6-33" value="" style="shape=cylinder3;whiteSpace=wrap;html=1;boundedLbl=1;backgroundOutline=1;size=15;" vertex="1" parent="1">
          <mxGeometry x="-57.5" y="400" width="60" height="80" as="geometry" />
        </mxCell>
        <mxCell id="dgKwdxsKXp1fs5gJgRd6-35" style="edgeStyle=orthogonalEdgeStyle;rounded=0;orthogonalLoop=1;jettySize=auto;html=1;entryX=0;entryY=0.5;entryDx=0;entryDy=0;startArrow=classic;startFill=1;" edge="1" parent="1" source="dgKwdxsKXp1fs5gJgRd6-34" target="dgKwdxsKXp1fs5gJgRd6-16">
          <mxGeometry relative="1" as="geometry" />
        </mxCell>
        <mxCell id="dgKwdxsKXp1fs5gJgRd6-36" style="edgeStyle=orthogonalEdgeStyle;rounded=0;orthogonalLoop=1;jettySize=auto;html=1;exitX=0;exitY=0.5;exitDx=0;exitDy=0;entryX=1;entryY=0.5;entryDx=0;entryDy=0;startArrow=classic;startFill=1;" edge="1" parent="1" source="dgKwdxsKXp1fs5gJgRd6-34" target="dgKwdxsKXp1fs5gJgRd6-29">
          <mxGeometry relative="1" as="geometry" />
        </mxCell>
        <mxCell id="dgKwdxsKXp1fs5gJgRd6-34" value="&lt;div&gt;API&lt;br&gt;&lt;/div&gt;&lt;div&gt;Load-Balancer&lt;/div&gt;" style="shape=step;perimeter=stepPerimeter;whiteSpace=wrap;html=1;fixedSize=1;" vertex="1" parent="1">
          <mxGeometry x="80" y="270" width="120" height="80" as="geometry" />
        </mxCell>
        <mxCell id="dgKwdxsKXp1fs5gJgRd6-37" style="edgeStyle=orthogonalEdgeStyle;rounded=0;orthogonalLoop=1;jettySize=auto;html=1;entryX=0;entryY=0.5;entryDx=0;entryDy=0;startArrow=classic;startFill=1;" edge="1" parent="1" source="dgKwdxsKXp1fs5gJgRd6-38">
          <mxGeometry relative="1" as="geometry">
            <mxPoint x="-90" y="310" as="targetPoint" />
          </mxGeometry>
        </mxCell>
        <mxCell id="dgKwdxsKXp1fs5gJgRd6-38" value="&lt;div&gt;Initial-Request&lt;br&gt;&lt;/div&gt;&lt;div&gt;Load-Balancer&lt;/div&gt;" style="shape=step;perimeter=stepPerimeter;whiteSpace=wrap;html=1;fixedSize=1;" vertex="1" parent="1">
          <mxGeometry x="-290" y="270" width="120" height="80" as="geometry" />
        </mxCell>
        <mxCell id="dgKwdxsKXp1fs5gJgRd6-39" value="Actor" style="shape=umlActor;verticalLabelPosition=bottom;verticalAlign=top;html=1;outlineConnect=0;fontColor=none;noLabel=1;" vertex="1" parent="1">
          <mxGeometry x="-440" y="280" width="30" height="60" as="geometry" />
        </mxCell>
        <mxCell id="dgKwdxsKXp1fs5gJgRd6-40" style="edgeStyle=orthogonalEdgeStyle;rounded=0;orthogonalLoop=1;jettySize=auto;html=1;exitX=0;exitY=0.5;exitDx=0;exitDy=0;startArrow=classic;startFill=1;" edge="1" parent="1">
          <mxGeometry relative="1" as="geometry">
            <mxPoint x="-270" y="310" as="sourcePoint" />
            <mxPoint x="-390" y="310" as="targetPoint" />
          </mxGeometry>
        </mxCell>
      </root>
    </mxGraphModel>
  </diagram>
</mxfile>
